<svg xmlns="http://www.w3.org/2000/svg" width="700" height="1000" viewBox="0 0 700 1000">
  <defs>
    <linearGradient id="g4" x1="0" y1="0" x2="1" y2="1">
      <stop offset="0" stop-color="#bcd7e8"/>
      <stop offset="1" stop-color="#7fa9c4"/>
    </linearGradient>
  </defs>
  <rect width="700" height="1000" fill="url(#g4)"/>
  <g stroke="#ffffff" stroke-width="3" opacity="0.55">
    <line x1="0" y1="80" x2="700" y2="0"/>
    <line x1="0" y1="260" x2="700" y2="180"/>
    <line x1="0" y1="440" x2="700" y2="360"/>
    <line x1="0" y1="620" x2="700" y2="540"/>
    <line x1="0" y1="800" x2="700" y2="720"/>
    <line x1="0" y1="980" x2="700" y2="900"/>
    <line x1="150" y1="0" x2="150" y2="1000"/>
    <line x1="350" y1="0" x2="350" y2="1000"/>
    <line x1="550" y1="0" x2="550" y2="1000"/>
  </g>
  <g fill="#ffffff" opacity="0.25">
    <polygon points="150,80 350,60 350,240 150,260"/>
    <polygon points="350,420 550,380 550,560 350,600"/>
    <polygon points="0,620 150,600 150,780 0,800"/>
  </g>
  <text x="350" y="520" font-family="Arial, sans-serif" font-size="34" fill="#2b526e" text-anchor="middle" opacity="0.7">GLASS ENVELOPE</text>
</svg>
