<svg xmlns="http://www.w3.org/2000/svg" width="440" height="260" viewBox="0 0 440 260">
  <rect width="440" height="260" fill="#3a3f33"/>
  <rect y="150" width="440" height="110" fill="#2a2e24"/>
  <g fill="#7a8a4a" opacity="0.85">
    <circle cx="60" cy="90" r="34"/>
    <circle cx="150" cy="60" r="40"/>
    <circle cx="250" cy="95" r="38"/>
    <circle cx="350" cy="70" r="44"/>
    <circle cx="410" cy="110" r="30"/>
    <circle cx="110" cy="130" r="30"/>
    <circle cx="300" cy="140" r="34"/>
  </g>
  <g fill="#556033" opacity="0.7">
    <circle cx="100" cy="95" r="20"/>
    <circle cx="210" cy="120" r="22"/>
    <circle cx="330" cy="115" r="24"/>
  </g>
  <g fill="#6b6f5c">
    <rect x="20" y="185" width="26" height="18"/>
    <rect x="80" y="200" width="30" height="20"/>
    <rect x="150" y="180" width="24" height="18"/>
    <rect x="230" y="205" width="28" height="20"/>
    <rect x="320" y="188" width="26" height="18"/>
    <rect x="390" y="205" width="30" height="20"/>
  </g>
</svg>
